<svg width="50" height="50" viewBox="0 0 50 50" fill="none" xmlns="http://www.w3.org/2000/svg">
<path d="M18.0998 3.00061H5.87786C4.52786 3.00061 3.43347 4.095 3.43347 5.445V17.6669C3.43347 19.0169 4.52786 20.1113 5.87786 20.1113H18.0998C19.4498 20.1113 20.5442 19.0169 20.5442 17.6669V5.445C20.5442 4.095 19.4498 3.00061 18.0998 3.00061Z" stroke="#2960EE" stroke-width="5" stroke-linecap="round" stroke-linejoin="round"/>
<path d="M18.0998 29.8887H5.87786C4.52786 29.8887 3.43347 30.9831 3.43347 32.3331V44.555C3.43347 45.905 4.52786 46.9994 5.87786 46.9994H18.0998C19.4498 46.9994 20.5442 45.905 20.5442 44.555V32.3331C20.5442 30.9831 19.4498 29.8887 18.0998 29.8887Z" stroke="#2960EE" stroke-width="5" stroke-linecap="round" stroke-linejoin="round"/>
<path d="M44.9892 3.00061H32.7673C31.4173 3.00061 30.3229 4.095 30.3229 5.445V17.6669C30.3229 19.0169 31.4173 20.1113 32.7673 20.1113H44.9892C46.3392 20.1113 47.4336 19.0169 47.4336 17.6669V5.445C47.4336 4.095 46.3392 3.00061 44.9892 3.00061Z" stroke="#2960EE" stroke-width="5" stroke-linecap="round" stroke-linejoin="round"/>
<path d="M44.9892 29.8887H32.7673C31.4173 29.8887 30.3229 30.9831 30.3229 32.3331V44.555C30.3229 45.905 31.4173 46.9994 32.7673 46.9994H44.9892C46.3392 46.9994 47.4336 45.905 47.4336 44.555V32.3331C47.4336 30.9831 46.3392 29.8887 44.9892 29.8887Z" stroke="#2960EE" stroke-width="5" stroke-linecap="round" stroke-linejoin="round"/>
</svg>
