<svg width="265" height="44" viewBox="0 0 194 50" fill="none" xmlns="http://www.w3.org/2000/svg">
<path d="M18.0998 3.00061H5.87786C4.52786 3.00061 3.43347 4.095 3.43347 5.445V17.6669C3.43347 19.0169 4.52786 20.1113 5.87786 20.1113H18.0998C19.4498 20.1113 20.5442 19.0169 20.5442 17.6669V5.445C20.5442 4.095 19.4498 3.00061 18.0998 3.00061Z" stroke="#2960EE" stroke-width="5" stroke-linecap="round" stroke-linejoin="round"/>
<path d="M18.0998 29.8887H5.87786C4.52786 29.8887 3.43347 30.9831 3.43347 32.3331V44.555C3.43347 45.905 4.52786 46.9994 5.87786 46.9994H18.0998C19.4498 46.9994 20.5442 45.905 20.5442 44.555V32.3331C20.5442 30.9831 19.4498 29.8887 18.0998 29.8887Z" stroke="#2960EE" stroke-width="5" stroke-linecap="round" stroke-linejoin="round"/>
<path d="M44.9892 3.00061H32.7673C31.4173 3.00061 30.3229 4.095 30.3229 5.445V17.6669C30.3229 19.0169 31.4173 20.1113 32.7673 20.1113H44.9892C46.3392 20.1113 47.4336 19.0169 47.4336 17.6669V5.445C47.4336 4.095 46.3392 3.00061 44.9892 3.00061Z" stroke="#2960EE" stroke-width="5" stroke-linecap="round" stroke-linejoin="round"/>
<path d="M44.9892 29.8887H32.7673C31.4173 29.8887 30.3229 30.9831 30.3229 32.3331V44.555C30.3229 45.905 31.4173 46.9994 32.7673 46.9994H44.9892C46.3392 46.9994 47.4336 45.905 47.4336 44.555V32.3331C47.4336 30.9831 46.3392 29.8887 44.9892 29.8887Z" stroke="#2960EE" stroke-width="5" stroke-linecap="round" stroke-linejoin="round"/>
<path d="M77.1455 42.5V13.076H65.6255V8.9H93.4175V13.076H81.8975V42.5H77.1455ZM112.646 42.5V37.124L112.406 36.116V26.948C112.406 24.996 111.83 23.492 110.678 22.436C109.558 21.348 107.862 20.804 105.589 20.804C104.086 20.804 102.614 21.06 101.174 21.572C99.734 22.052 98.518 22.708 97.526 23.54L95.606 20.084C96.918 19.028 98.486 18.228 100.31 17.684C102.166 17.108 104.102 16.82 106.118 16.82C109.606 16.82 112.294 17.668 114.182 19.364C116.07 21.06 117.014 23.652 117.014 27.14V42.5H112.646ZM104.294 42.788C102.406 42.788 100.742 42.468 99.302 41.828C97.894 41.188 96.806 40.308 96.038 39.188C95.27 38.036 94.886 36.74 94.886 35.3C94.886 33.924 95.206 32.676 95.846 31.556C96.518 30.436 97.59 29.54 99.062 28.868C100.566 28.196 102.582 27.86 105.11 27.86H113.174V31.172H105.302C102.998 31.172 101.446 31.556 100.645 32.324C99.846 33.092 99.446 34.02 99.446 35.108C99.446 36.356 99.942 37.364 100.934 38.132C101.926 38.868 103.302 39.236 105.062 39.236C106.79 39.236 108.294 38.852 109.574 38.084C110.886 37.316 111.83 36.196 112.406 34.724L113.318 37.892C112.71 39.396 111.638 40.596 110.102 41.492C108.566 42.356 106.63 42.788 104.294 42.788ZM133.077 42.788C130.965 42.788 128.949 42.5 127.029 41.924C125.141 41.348 123.653 40.644 122.565 39.812L124.485 36.164C125.573 36.9 126.917 37.524 128.517 38.036C130.117 38.548 131.749 38.804 133.413 38.804C135.557 38.804 137.093 38.5 138.021 37.892C138.981 37.284 139.461 36.436 139.461 35.348C139.461 34.548 139.173 33.924 138.597 33.476C138.021 33.028 137.253 32.692 136.293 32.468C135.365 32.244 134.325 32.052 133.173 31.892C132.021 31.7 130.869 31.476 129.717 31.22C128.565 30.932 127.509 30.548 126.549 30.068C125.589 29.556 124.821 28.868 124.245 28.004C123.669 27.108 123.381 25.924 123.381 24.452C123.381 22.916 123.813 21.572 124.677 20.42C125.541 19.268 126.757 18.388 128.325 17.78C129.925 17.14 131.813 16.82 133.989 16.82C135.653 16.82 137.333 17.028 139.029 17.444C140.757 17.828 142.165 18.388 143.253 19.124L141.285 22.772C140.133 22.004 138.933 21.476 137.685 21.188C136.437 20.9 135.189 20.756 133.941 20.756C131.925 20.756 130.421 21.092 129.429 21.764C128.437 22.404 127.941 23.236 127.941 24.26C127.941 25.124 128.229 25.796 128.805 26.276C129.413 26.724 130.181 27.076 131.109 27.332C132.069 27.588 133.125 27.812 134.277 28.004C135.429 28.164 136.581 28.388 137.733 28.676C138.885 28.932 139.925 29.3 140.853 29.78C141.813 30.26 142.581 30.932 143.157 31.796C143.765 32.66 144.069 33.812 144.069 35.252C144.069 36.788 143.621 38.116 142.725 39.236C141.829 40.356 140.565 41.236 138.933 41.876C137.301 42.484 135.349 42.788 133.077 42.788ZM153.812 36.356L153.908 30.452L168.548 17.06H174.116L162.884 28.1L160.388 30.212L153.812 36.356ZM150.068 42.5V6.884H154.676V42.5H150.068ZM169.508 42.5L159.524 30.116L162.5 26.42L175.172 42.5H169.508ZM179.886 42.5V17.06H184.302V23.972L183.87 22.244C184.574 20.484 185.758 19.14 187.422 18.212C189.086 17.284 191.134 16.82 193.566 16.82V21.284C193.374 21.252 193.182 21.236 192.99 21.236C192.83 21.236 192.67 21.236 192.51 21.236C190.046 21.236 188.094 21.972 186.654 23.444C185.214 24.916 184.494 27.044 184.494 29.828V42.5H179.886Z" fill="#E3E3E3"/>
</svg>
